<svg width="25" height="24" viewBox="0 0 25 24" fill="none" xmlns="http://www.w3.org/2000/svg">
<circle cx="12.5" cy="12" r="11.5" fill="#C4E1A2" stroke="#ABD57B"/>
<path d="M15.6302 15.5902C15.8169 15.5902 15.9639 15.6439 16.0712 15.7512C16.1832 15.8539 16.2392 15.9915 16.2392 16.1642V17.2002H9.29518V16.6262C9.29518 16.5095 9.31852 16.3882 9.36518 16.2622C9.41652 16.1315 9.49585 16.0149 9.60318 15.9122L12.6762 12.8322C12.9329 12.5709 13.1615 12.3212 13.3622 12.0832C13.5675 11.8452 13.7379 11.6095 13.8732 11.3762C14.0085 11.1429 14.1112 10.9072 14.1812 10.6692C14.2559 10.4265 14.2932 10.1722 14.2932 9.90619C14.2932 9.66353 14.2582 9.45119 14.1882 9.2692C14.1182 9.08253 14.0179 8.92619 13.8872 8.80019C13.7612 8.67419 13.6072 8.58086 13.4252 8.5202C13.2479 8.45486 13.0472 8.42219 12.8232 8.42219C12.6179 8.42219 12.4265 8.45253 12.2492 8.51319C12.0765 8.56919 11.9225 8.65086 11.7872 8.75819C11.6519 8.86086 11.5375 8.9822 11.4442 9.1222C11.3509 9.26219 11.2809 9.41619 11.2342 9.58419C11.1549 9.79886 11.0522 9.94119 10.9262 10.0112C10.8002 10.0812 10.6182 10.0975 10.3802 10.0602L9.47018 9.89919C9.54018 9.41386 9.67552 8.98919 9.87618 8.6252C10.0769 8.25653 10.3265 7.95086 10.6252 7.70819C10.9285 7.46086 11.2739 7.27653 11.6612 7.15519C12.0532 7.0292 12.4732 6.9662 12.9212 6.9662C13.3879 6.9662 13.8149 7.0362 14.2022 7.1762C14.5895 7.31153 14.9209 7.50519 15.1962 7.75719C15.4715 8.00919 15.6862 8.31253 15.8402 8.66719C15.9942 9.02186 16.0712 9.4162 16.0712 9.85019C16.0712 10.2235 16.0152 10.5689 15.9032 10.8862C15.7959 11.2035 15.6489 11.5069 15.4622 11.7962C15.2802 12.0855 15.0655 12.3655 14.8182 12.6362C14.5709 12.9069 14.3119 13.1822 14.0412 13.4622L11.7592 15.7932C11.9785 15.7279 12.1955 15.6789 12.4102 15.6462C12.6295 15.6089 12.8372 15.5902 13.0332 15.5902H15.6302Z" fill="white"/>
</svg>
