<svg width="25" height="24" viewBox="0 0 25 24" fill="none" xmlns="http://www.w3.org/2000/svg">
<circle cx="12.5" cy="12" r="11.5" fill="#C4E1A2" stroke="#ABD57B"/>
<path d="M9.51918 9.89919C9.58918 9.41386 9.72452 8.98919 9.92518 8.6252C10.1259 8.25653 10.3755 7.95086 10.6742 7.70819C10.9775 7.46086 11.3229 7.27653 11.7102 7.15519C12.1022 7.0292 12.5222 6.9662 12.9702 6.9662C13.4369 6.9662 13.8569 7.03386 14.2302 7.16919C14.6082 7.29986 14.9302 7.48419 15.1962 7.72219C15.4622 7.95553 15.6652 8.23086 15.8052 8.54819C15.9499 8.86553 16.0222 9.20853 16.0222 9.57719C16.0222 9.89919 15.9849 10.1839 15.9102 10.4312C15.8402 10.6739 15.7375 10.8862 15.6022 11.0682C15.4669 11.2502 15.2989 11.4042 15.0982 11.5302C14.8975 11.6562 14.6712 11.7612 14.4192 11.8452C15.0259 12.0365 15.4785 12.3282 15.7772 12.7202C16.0759 13.1122 16.2252 13.6045 16.2252 14.1972C16.2252 14.7012 16.1319 15.1469 15.9452 15.5342C15.7585 15.9215 15.5065 16.2482 15.1892 16.5142C14.8719 16.7755 14.5032 16.9739 14.0832 17.1092C13.6679 17.2445 13.2269 17.3122 12.7602 17.3122C12.2515 17.3122 11.8082 17.2539 11.4302 17.1372C11.0522 17.0205 10.7232 16.8479 10.4432 16.6192C10.1632 16.3905 9.92518 16.1105 9.72918 15.7792C9.53318 15.4479 9.36518 15.0652 9.22518 14.6312L9.98818 14.3162C10.1889 14.2322 10.3755 14.2112 10.5482 14.2532C10.7255 14.2905 10.8539 14.3839 10.9332 14.5332C11.0172 14.6965 11.1082 14.8575 11.2062 15.0162C11.3089 15.1749 11.4302 15.3172 11.5702 15.4432C11.7102 15.5645 11.8735 15.6649 12.0602 15.7442C12.2515 15.8189 12.4779 15.8562 12.7392 15.8562C13.0332 15.8562 13.2899 15.8095 13.5092 15.7162C13.7285 15.6182 13.9105 15.4922 14.0552 15.3382C14.2045 15.1842 14.3142 15.0139 14.3842 14.8272C14.4589 14.6359 14.4962 14.4445 14.4962 14.2532C14.4962 14.0105 14.4705 13.7912 14.4192 13.5952C14.3679 13.3945 14.2605 13.2242 14.0972 13.0842C13.9339 12.9442 13.6982 12.8345 13.3902 12.7552C13.0869 12.6759 12.6785 12.6362 12.1652 12.6362V11.4042C12.5899 11.3995 12.9422 11.3599 13.2222 11.2852C13.5022 11.2105 13.7239 11.1079 13.8872 10.9772C14.0552 10.8419 14.1719 10.6809 14.2372 10.4942C14.3025 10.3075 14.3352 10.1022 14.3352 9.8782C14.3352 9.4022 14.2022 9.04053 13.9362 8.79319C13.6702 8.54586 13.3155 8.42219 12.8722 8.42219C12.6669 8.42219 12.4779 8.45253 12.3052 8.51319C12.1325 8.56919 11.9762 8.65086 11.8362 8.75819C11.7009 8.86086 11.5865 8.9822 11.4932 9.1222C11.3999 9.26219 11.3299 9.41619 11.2832 9.58419C11.2039 9.79886 11.0989 9.94119 10.9682 10.0112C10.8422 10.0812 10.6625 10.0975 10.4292 10.0602L9.51918 9.89919Z" fill="white"/>
</svg>
