<svg width="25" height="24" viewBox="0 0 25 24" fill="none" xmlns="http://www.w3.org/2000/svg">
<circle cx="12.5" cy="12" r="11.5" fill="#F8F9FA" stroke="#D4DADE"/>
<path d="M9.5187 9.89919C9.5887 9.41386 9.72403 8.98919 9.9247 8.6252C10.1254 8.25653 10.375 7.95086 10.6737 7.70819C10.977 7.46086 11.3224 7.27653 11.7097 7.15519C12.1017 7.0292 12.5217 6.9662 12.9697 6.9662C13.4364 6.9662 13.8564 7.03386 14.2297 7.16919C14.6077 7.29986 14.9297 7.48419 15.1957 7.72219C15.4617 7.95553 15.6647 8.23086 15.8047 8.54819C15.9494 8.86553 16.0217 9.20853 16.0217 9.57719C16.0217 9.89919 15.9844 10.1839 15.9097 10.4312C15.8397 10.6739 15.737 10.8862 15.6017 11.0682C15.4664 11.2502 15.2984 11.4042 15.0977 11.5302C14.897 11.6562 14.6707 11.7612 14.4187 11.8452C15.0254 12.0365 15.478 12.3282 15.7767 12.7202C16.0754 13.1122 16.2247 13.6045 16.2247 14.1972C16.2247 14.7012 16.1314 15.1469 15.9447 15.5342C15.758 15.9215 15.506 16.2482 15.1887 16.5142C14.8714 16.7755 14.5027 16.9739 14.0827 17.1092C13.6674 17.2445 13.2264 17.3122 12.7597 17.3122C12.251 17.3122 11.8077 17.2539 11.4297 17.1372C11.0517 17.0205 10.7227 16.8479 10.4427 16.6192C10.1627 16.3905 9.9247 16.1105 9.7287 15.7792C9.5327 15.4479 9.3647 15.0652 9.2247 14.6312L9.9877 14.3162C10.1884 14.2322 10.375 14.2112 10.5477 14.2532C10.725 14.2905 10.8534 14.3839 10.9327 14.5332C11.0167 14.6965 11.1077 14.8575 11.2057 15.0162C11.3084 15.1749 11.4297 15.3172 11.5697 15.4432C11.7097 15.5645 11.873 15.6649 12.0597 15.7442C12.251 15.8189 12.4774 15.8562 12.7387 15.8562C13.0327 15.8562 13.2894 15.8095 13.5087 15.7162C13.728 15.6182 13.91 15.4922 14.0547 15.3382C14.204 15.1842 14.3137 15.0139 14.3837 14.8272C14.4584 14.6359 14.4957 14.4445 14.4957 14.2532C14.4957 14.0105 14.47 13.7912 14.4187 13.5952C14.3674 13.3945 14.26 13.2242 14.0967 13.0842C13.9334 12.9442 13.6977 12.8345 13.3897 12.7552C13.0864 12.6759 12.678 12.6362 12.1647 12.6362V11.4042C12.5894 11.3995 12.9417 11.3599 13.2217 11.2852C13.5017 11.2105 13.7234 11.1079 13.8867 10.9772C14.0547 10.8419 14.1714 10.6809 14.2367 10.4942C14.302 10.3075 14.3347 10.1022 14.3347 9.8782C14.3347 9.4022 14.2017 9.04053 13.9357 8.79319C13.6697 8.54586 13.315 8.42219 12.8717 8.42219C12.6664 8.42219 12.4774 8.45253 12.3047 8.51319C12.132 8.56919 11.9757 8.65086 11.8357 8.75819C11.7004 8.86086 11.586 8.9822 11.4927 9.1222C11.3994 9.26219 11.3294 9.41619 11.2827 9.58419C11.2034 9.79886 11.0984 9.94119 10.9677 10.0112C10.8417 10.0812 10.662 10.0975 10.4287 10.0602L9.5187 9.89919Z" fill="#D4DADE"/>
</svg>
