<svg width="25" height="24" viewBox="0 0 25 24" fill="none" xmlns="http://www.w3.org/2000/svg">
<circle cx="12.5" cy="12" r="11.5" fill="#F8F9FA" stroke="#D4DADE"/>
<path d="M15.6297 15.5902C15.8164 15.5902 15.9634 15.6439 16.0707 15.7512C16.1827 15.8539 16.2387 15.9915 16.2387 16.1642V17.2002H9.2947V16.6262C9.2947 16.5095 9.31803 16.3882 9.3647 16.2622C9.41603 16.1315 9.49536 16.0149 9.6027 15.9122L12.6757 12.8322C12.9324 12.5709 13.161 12.3212 13.3617 12.0832C13.567 11.8452 13.7374 11.6095 13.8727 11.3762C14.008 11.1429 14.1107 10.9072 14.1807 10.6692C14.2554 10.4265 14.2927 10.1722 14.2927 9.90619C14.2927 9.66353 14.2577 9.45119 14.1877 9.2692C14.1177 9.08253 14.0174 8.92619 13.8867 8.80019C13.7607 8.67419 13.6067 8.58086 13.4247 8.5202C13.2474 8.45486 13.0467 8.42219 12.8227 8.42219C12.6174 8.42219 12.426 8.45253 12.2487 8.51319C12.076 8.56919 11.922 8.65086 11.7867 8.75819C11.6514 8.86086 11.537 8.9822 11.4437 9.1222C11.3504 9.26219 11.2804 9.41619 11.2337 9.58419C11.1544 9.79886 11.0517 9.94119 10.9257 10.0112C10.7997 10.0812 10.6177 10.0975 10.3797 10.0602L9.4697 9.89919C9.5397 9.41386 9.67503 8.98919 9.8757 8.6252C10.0764 8.25653 10.326 7.95086 10.6247 7.70819C10.928 7.46086 11.2734 7.27653 11.6607 7.15519C12.0527 7.0292 12.4727 6.9662 12.9207 6.9662C13.3874 6.9662 13.8144 7.0362 14.2017 7.1762C14.589 7.31153 14.9204 7.50519 15.1957 7.75719C15.471 8.00919 15.6857 8.31253 15.8397 8.66719C15.9937 9.02186 16.0707 9.4162 16.0707 9.85019C16.0707 10.2235 16.0147 10.5689 15.9027 10.8862C15.7954 11.2035 15.6484 11.5069 15.4617 11.7962C15.2797 12.0855 15.065 12.3655 14.8177 12.6362C14.5704 12.9069 14.3114 13.1822 14.0407 13.4622L11.7587 15.7932C11.978 15.7279 12.195 15.6789 12.4097 15.6462C12.629 15.6089 12.8367 15.5902 13.0327 15.5902H15.6297Z" fill="#D4DADE"/>
</svg>
