<svg width="16" height="17" viewBox="0 0 16 17" fill="none" xmlns="http://www.w3.org/2000/svg">
<path opacity="0.2" fill-rule="evenodd" clip-rule="evenodd" d="M13.6666 9.76627C13.3362 11.2408 12.4353 12.5244 11.161 13.3365C9.88668 14.1486 8.34267 14.4231 6.86656 14.0999C5.66463 13.8367 4.58507 13.1795 3.79932 12.2327C4.50004 11.6331 5.35475 11.2419 6.26652 11.1034C7.16256 11.1138 8.05698 11.0244 8.93323 10.8369C10.0663 10.3701 10.6001 8.97047 12.6668 9.37025C12.8516 9.36454 13.0357 9.39673 13.2077 9.46484C13.3796 9.53295 13.5358 9.63553 13.6666 9.76627Z" fill="white"/>
<path d="M13.2585 6.3638C12.8432 5.09054 11.9853 4.00827 10.8405 3.31323C9.69565 2.6182 8.33966 2.35642 7.01839 2.57536C5.69711 2.79429 4.49803 3.47946 3.63858 4.50661C2.77912 5.53376 2.31619 6.83489 2.33373 8.17407C2.35127 9.51325 2.84812 10.8018 3.73419 11.8061C4.62025 12.8104 5.83687 13.4639 7.16342 13.6482C8.48998 13.8324 9.83865 13.5352 10.9649 12.8104C12.0911 12.0856 12.9203 10.9813 13.3022 9.69757" stroke="white" stroke-width="0.666667" stroke-linecap="round" stroke-linejoin="round"/>
<path d="M10.9998 5.76318V7.56325H9.2005" stroke="white" stroke-width="0.666667" stroke-linecap="round" stroke-linejoin="round"/>
<path d="M10.2466 9.06324C10.0521 9.61536 9.68339 10.0893 9.19607 10.4137C8.70876 10.738 8.12923 10.8952 7.5448 10.8616C6.96038 10.8279 6.40272 10.6053 5.95584 10.2271C5.50897 9.84898 5.19709 9.33585 5.0672 8.76505C4.9373 8.19425 4.99643 7.5967 5.23568 7.06243C5.47492 6.52815 5.88132 6.0861 6.39363 5.80288C6.90595 5.51966 7.49644 5.4106 8.07612 5.49215C8.65581 5.5737 9.19329 5.84143 9.60759 6.255L10.9995 7.56318" stroke="white" stroke-width="0.666667" stroke-linecap="round" stroke-linejoin="round"/>
</svg>
